<mxfile host="app.diagrams.net" modified="2022-12-06T10:12:08.003Z" agent="5.0 (Macintosh; Intel Mac OS X 10_15_7) AppleWebKit/537.36 (KHTML, like Gecko) Chrome/101.0.0.0 Safari/537.36" version="20.6.0" etag="BXXDdnkHbD5L5iIajgXB" type="github">
  <diagram id="SDjKLvVEclTaMKikwINN" name="第 1 页">
    <mxGraphModel dx="1426" dy="793" grid="1" gridSize="10" guides="1" tooltips="1" connect="1" arrows="1" fold="1" page="1" pageScale="1" pageWidth="827" pageHeight="1169" math="0" shadow="0">
      <root>
        <mxCell id="0" />
        <mxCell id="1" parent="0" />
        <mxCell id="G1CB8HRIKVYqwDcbVfcT-21" value="uid 为空？" style="rounded=0;whiteSpace=wrap;html=1;" vertex="1" parent="1">
          <mxGeometry x="110" y="610" width="110" height="50" as="geometry" />
        </mxCell>
        <mxCell id="G1CB8HRIKVYqwDcbVfcT-22" value="receipt为空？" style="rounded=0;whiteSpace=wrap;html=1;" vertex="1" parent="1">
          <mxGeometry x="110" y="710" width="110" height="50" as="geometry" />
        </mxCell>
        <mxCell id="G1CB8HRIKVYqwDcbVfcT-23" value="生成uid" style="rounded=0;whiteSpace=wrap;html=1;" vertex="1" parent="1">
          <mxGeometry x="300" y="510" width="110" height="50" as="geometry" />
        </mxCell>
        <mxCell id="G1CB8HRIKVYqwDcbVfcT-25" value="结束" style="rounded=0;whiteSpace=wrap;html=1;" vertex="1" parent="1">
          <mxGeometry x="500" y="510" width="110" height="50" as="geometry" />
        </mxCell>
        <mxCell id="G1CB8HRIKVYqwDcbVfcT-26" value="" style="endArrow=classic;html=1;rounded=0;exitX=1;exitY=0.5;exitDx=0;exitDy=0;entryX=0;entryY=0.5;entryDx=0;entryDy=0;" edge="1" parent="1" source="G1CB8HRIKVYqwDcbVfcT-21" target="G1CB8HRIKVYqwDcbVfcT-23">
          <mxGeometry width="50" height="50" relative="1" as="geometry">
            <mxPoint x="360" y="700" as="sourcePoint" />
            <mxPoint x="410" y="650" as="targetPoint" />
          </mxGeometry>
        </mxCell>
        <mxCell id="G1CB8HRIKVYqwDcbVfcT-28" value="是" style="edgeLabel;html=1;align=center;verticalAlign=middle;resizable=0;points=[];" vertex="1" connectable="0" parent="G1CB8HRIKVYqwDcbVfcT-26">
          <mxGeometry x="0.0585" y="2" relative="1" as="geometry">
            <mxPoint as="offset" />
          </mxGeometry>
        </mxCell>
        <mxCell id="G1CB8HRIKVYqwDcbVfcT-27" value="" style="endArrow=classic;html=1;rounded=0;exitX=1;exitY=0.5;exitDx=0;exitDy=0;entryX=0;entryY=0.75;entryDx=0;entryDy=0;" edge="1" parent="1" source="G1CB8HRIKVYqwDcbVfcT-22" target="G1CB8HRIKVYqwDcbVfcT-23">
          <mxGeometry width="50" height="50" relative="1" as="geometry">
            <mxPoint x="330" y="730" as="sourcePoint" />
            <mxPoint x="380" y="680" as="targetPoint" />
          </mxGeometry>
        </mxCell>
        <mxCell id="G1CB8HRIKVYqwDcbVfcT-29" value="是" style="edgeLabel;html=1;align=center;verticalAlign=middle;resizable=0;points=[];" vertex="1" connectable="0" parent="G1CB8HRIKVYqwDcbVfcT-27">
          <mxGeometry x="0.591" relative="1" as="geometry">
            <mxPoint as="offset" />
          </mxGeometry>
        </mxCell>
        <mxCell id="G1CB8HRIKVYqwDcbVfcT-30" value="" style="endArrow=classic;html=1;rounded=0;exitX=1;exitY=0.5;exitDx=0;exitDy=0;entryX=0;entryY=0.5;entryDx=0;entryDy=0;" edge="1" parent="1" source="G1CB8HRIKVYqwDcbVfcT-23" target="G1CB8HRIKVYqwDcbVfcT-25">
          <mxGeometry width="50" height="50" relative="1" as="geometry">
            <mxPoint x="560" y="670" as="sourcePoint" />
            <mxPoint x="610" y="620" as="targetPoint" />
          </mxGeometry>
        </mxCell>
        <mxCell id="G1CB8HRIKVYqwDcbVfcT-31" value="结束" style="rounded=0;whiteSpace=wrap;html=1;" vertex="1" parent="1">
          <mxGeometry x="300" y="620" width="110" height="50" as="geometry" />
        </mxCell>
        <mxCell id="G1CB8HRIKVYqwDcbVfcT-32" value="" style="endArrow=classic;html=1;rounded=0;exitX=1;exitY=0.5;exitDx=0;exitDy=0;entryX=0;entryY=0.5;entryDx=0;entryDy=0;" edge="1" parent="1" source="G1CB8HRIKVYqwDcbVfcT-21" target="G1CB8HRIKVYqwDcbVfcT-31">
          <mxGeometry width="50" height="50" relative="1" as="geometry">
            <mxPoint x="410" y="840" as="sourcePoint" />
            <mxPoint x="460" y="790" as="targetPoint" />
          </mxGeometry>
        </mxCell>
        <mxCell id="G1CB8HRIKVYqwDcbVfcT-34" value="否" style="edgeLabel;html=1;align=center;verticalAlign=middle;resizable=0;points=[];" vertex="1" connectable="0" parent="G1CB8HRIKVYqwDcbVfcT-32">
          <mxGeometry x="0.2348" relative="1" as="geometry">
            <mxPoint as="offset" />
          </mxGeometry>
        </mxCell>
        <mxCell id="G1CB8HRIKVYqwDcbVfcT-33" value="" style="endArrow=classic;html=1;rounded=0;exitX=1;exitY=0.5;exitDx=0;exitDy=0;entryX=0;entryY=0.5;entryDx=0;entryDy=0;" edge="1" parent="1" source="G1CB8HRIKVYqwDcbVfcT-22" target="G1CB8HRIKVYqwDcbVfcT-31">
          <mxGeometry width="50" height="50" relative="1" as="geometry">
            <mxPoint x="400" y="820" as="sourcePoint" />
            <mxPoint x="390" y="660" as="targetPoint" />
          </mxGeometry>
        </mxCell>
        <mxCell id="G1CB8HRIKVYqwDcbVfcT-35" value="是" style="edgeLabel;html=1;align=center;verticalAlign=middle;resizable=0;points=[];" vertex="1" connectable="0" parent="G1CB8HRIKVYqwDcbVfcT-33">
          <mxGeometry x="0.2918" relative="1" as="geometry">
            <mxPoint as="offset" />
          </mxGeometry>
        </mxCell>
        <mxCell id="G1CB8HRIKVYqwDcbVfcT-36" value="解析recept" style="rounded=0;whiteSpace=wrap;html=1;" vertex="1" parent="1">
          <mxGeometry x="300" y="710" width="110" height="50" as="geometry" />
        </mxCell>
        <mxCell id="G1CB8HRIKVYqwDcbVfcT-37" value="" style="endArrow=classic;html=1;rounded=0;exitX=1;exitY=0.5;exitDx=0;exitDy=0;entryX=0;entryY=0.5;entryDx=0;entryDy=0;" edge="1" parent="1" source="G1CB8HRIKVYqwDcbVfcT-21" target="G1CB8HRIKVYqwDcbVfcT-36">
          <mxGeometry width="50" height="50" relative="1" as="geometry">
            <mxPoint x="400" y="920" as="sourcePoint" />
            <mxPoint x="450" y="870" as="targetPoint" />
          </mxGeometry>
        </mxCell>
        <mxCell id="G1CB8HRIKVYqwDcbVfcT-38" value="" style="endArrow=classic;html=1;rounded=0;entryX=0;entryY=0.5;entryDx=0;entryDy=0;exitX=1;exitY=0.5;exitDx=0;exitDy=0;" edge="1" parent="1" source="G1CB8HRIKVYqwDcbVfcT-22" target="G1CB8HRIKVYqwDcbVfcT-36">
          <mxGeometry width="50" height="50" relative="1" as="geometry">
            <mxPoint x="230" y="740" as="sourcePoint" />
            <mxPoint x="300" y="770" as="targetPoint" />
          </mxGeometry>
        </mxCell>
        <mxCell id="G1CB8HRIKVYqwDcbVfcT-39" value="查询订单信息是否绑定过uid" style="rounded=0;whiteSpace=wrap;html=1;" vertex="1" parent="1">
          <mxGeometry x="490" y="710" width="110" height="50" as="geometry" />
        </mxCell>
        <mxCell id="G1CB8HRIKVYqwDcbVfcT-40" value="" style="endArrow=classic;html=1;rounded=0;exitX=1;exitY=0.5;exitDx=0;exitDy=0;entryX=0;entryY=0.5;entryDx=0;entryDy=0;" edge="1" parent="1" source="G1CB8HRIKVYqwDcbVfcT-36" target="G1CB8HRIKVYqwDcbVfcT-39">
          <mxGeometry width="50" height="50" relative="1" as="geometry">
            <mxPoint x="580" y="890" as="sourcePoint" />
            <mxPoint x="630" y="840" as="targetPoint" />
          </mxGeometry>
        </mxCell>
        <mxCell id="G1CB8HRIKVYqwDcbVfcT-41" value="生成uid" style="rounded=0;whiteSpace=wrap;html=1;" vertex="1" parent="1">
          <mxGeometry x="690" y="710" width="110" height="50" as="geometry" />
        </mxCell>
        <mxCell id="G1CB8HRIKVYqwDcbVfcT-42" value="结束" style="rounded=0;whiteSpace=wrap;html=1;" vertex="1" parent="1">
          <mxGeometry x="490" y="820" width="110" height="50" as="geometry" />
        </mxCell>
        <mxCell id="G1CB8HRIKVYqwDcbVfcT-43" value="" style="endArrow=classic;html=1;rounded=0;exitX=0.5;exitY=1;exitDx=0;exitDy=0;entryX=0.5;entryY=0;entryDx=0;entryDy=0;" edge="1" parent="1" source="G1CB8HRIKVYqwDcbVfcT-39" target="G1CB8HRIKVYqwDcbVfcT-42">
          <mxGeometry width="50" height="50" relative="1" as="geometry">
            <mxPoint x="660" y="1060" as="sourcePoint" />
            <mxPoint x="710" y="1010" as="targetPoint" />
          </mxGeometry>
        </mxCell>
        <mxCell id="G1CB8HRIKVYqwDcbVfcT-44" value="是" style="edgeLabel;html=1;align=center;verticalAlign=middle;resizable=0;points=[];" vertex="1" connectable="0" parent="G1CB8HRIKVYqwDcbVfcT-43">
          <mxGeometry x="-0.0667" y="2" relative="1" as="geometry">
            <mxPoint as="offset" />
          </mxGeometry>
        </mxCell>
        <mxCell id="G1CB8HRIKVYqwDcbVfcT-45" value="" style="endArrow=classic;html=1;rounded=0;exitX=1;exitY=0.5;exitDx=0;exitDy=0;" edge="1" parent="1" source="G1CB8HRIKVYqwDcbVfcT-39" target="G1CB8HRIKVYqwDcbVfcT-41">
          <mxGeometry width="50" height="50" relative="1" as="geometry">
            <mxPoint x="780" y="930" as="sourcePoint" />
            <mxPoint x="830" y="880" as="targetPoint" />
          </mxGeometry>
        </mxCell>
        <mxCell id="G1CB8HRIKVYqwDcbVfcT-46" value="结束" style="rounded=0;whiteSpace=wrap;html=1;" vertex="1" parent="1">
          <mxGeometry x="890" y="710" width="110" height="50" as="geometry" />
        </mxCell>
        <mxCell id="G1CB8HRIKVYqwDcbVfcT-47" value="" style="endArrow=classic;html=1;rounded=0;exitX=1;exitY=0.5;exitDx=0;exitDy=0;" edge="1" parent="1" source="G1CB8HRIKVYqwDcbVfcT-41" target="G1CB8HRIKVYqwDcbVfcT-46">
          <mxGeometry width="50" height="50" relative="1" as="geometry">
            <mxPoint x="950" y="910" as="sourcePoint" />
            <mxPoint x="1000" y="860" as="targetPoint" />
          </mxGeometry>
        </mxCell>
      </root>
    </mxGraphModel>
  </diagram>
</mxfile>
